<svg xmlns="http://www.w3.org/2000/svg" version="1.1" xmlns:xlink="http://www.w3.org/1999/xlink" xmlns:svgjs="http://svgjs.dev/svgjs" width="1440" height="980" preserveAspectRatio="none" viewBox="0 0 1440 980">
    <g mask="url(&quot;#SvgjsMask1106&quot;)" fill="none">
        <rect width="1440" height="980" x="0" y="0" fill="rgba(28, 34, 35, 1)"></rect>
        <path d="M0,501.036C119.804,535.932,258.01,632.228,361.562,562.602C465.804,492.512,399.717,320.299,443.762,202.66C483.291,97.083,606.103,25.775,604.763,-86.952C603.403,-201.421,512.107,-292.269,436.855,-378.537C361.816,-464.561,276.581,-539.38,171.404,-583.749C57.057,-631.986,-71.133,-682.369,-188.624,-642.394C-305.284,-602.702,-367.661,-480.218,-435.412,-377.287C-495.553,-285.919,-535.319,-187.194,-558.596,-80.314C-583.442,33.768,-639.616,165.401,-574.747,262.478C-508.691,361.332,-357.353,339.606,-247.543,385.184C-161.66,420.831,-89.277,475.032,0,501.036" fill="#171c1d"></path>
        <path d="M1440 1459.557C1536.891 1458.032 1630.965 1452.1770000000001 1721.857 1418.578 1832.037 1377.849 1981.566 1355.915 2020.3339999999998 1245.03 2059.94 1131.749 1941.402 1026.086 1898.23 914.116 1865.886 830.229 1848.4470000000001 744.1320000000001 1798.405 669.44 1742.681 586.2660000000001 1685.731 496.589 1593.0819999999999 458.65200000000004 1496.827 419.23800000000006 1387.609 432.428 1287.368 460.183 1186.042 488.238 1079.959 529.903 1021.102 617.023 964.0260000000001 701.5070000000001 978.914 812.0360000000001 980.794 913.976 982.4110000000001 1001.632 1003.457 1083.522 1031.239 1166.675 1062.249 1259.488 1072.838 1370.545 1152.383 1427.54 1232.4180000000001 1484.886 1341.5529999999999 1461.106 1440 1459.557" fill="#212829"></path>
    </g>
    <defs>
        <mask id="SvgjsMask1106">
            <rect width="1440" height="980" fill="#ffffff"></rect>
        </mask>
    </defs>
</svg>